<mxfile host="app.diagrams.net" modified="2024-06-20T09:21:24.250Z" agent="Mozilla/5.0 (Windows NT 10.0; Win64; x64) AppleWebKit/537.36 (KHTML, like Gecko) Chrome/126.0.0.0 Safari/537.36 Edg/126.0.0.0" etag="psgQAXJsX09hau_STs7u" version="24.5.5" type="github">
  <diagram name="deploy" id="_d4CPiSw4EUlV4TWDW02">
    <mxGraphModel dx="1412" dy="737" grid="1" gridSize="10" guides="1" tooltips="1" connect="1" arrows="1" fold="1" page="1" pageScale="1" pageWidth="850" pageHeight="1100" math="0" shadow="0">
      <root>
        <mxCell id="0" />
        <mxCell id="1" parent="0" />
        <mxCell id="nXnLjLIVgFkykUAbK0dV-30" value="" style="endArrow=none;dashed=1;html=1;strokeWidth=4;rounded=0;" edge="1" parent="1">
          <mxGeometry width="50" height="50" relative="1" as="geometry">
            <mxPoint x="291" y="660" as="sourcePoint" />
            <mxPoint x="291" y="40" as="targetPoint" />
          </mxGeometry>
        </mxCell>
        <mxCell id="nXnLjLIVgFkykUAbK0dV-8" value="&lt;b&gt;&lt;font style=&quot;font-size: 14px;&quot;&gt;10.182.106.58&lt;/font&gt;&lt;/b&gt;&lt;div&gt;/var/fpwork/clutch/&lt;b&gt;&lt;font style=&quot;font-size: 14px;&quot;&gt;&lt;br&gt;&lt;/font&gt;&lt;/b&gt;&lt;/div&gt;" style="rounded=0;whiteSpace=wrap;html=1;verticalAlign=top;" vertex="1" parent="1">
          <mxGeometry x="595" y="60" width="240" height="510" as="geometry" />
        </mxCell>
        <mxCell id="nXnLjLIVgFkykUAbK0dV-9" value="&lt;b&gt;Byze-qa&lt;/b&gt;" style="rounded=0;whiteSpace=wrap;html=1;verticalAlign=top;dashed=1;" vertex="1" parent="1">
          <mxGeometry x="623" y="130" width="180" height="200" as="geometry" />
        </mxCell>
        <mxCell id="nXnLjLIVgFkykUAbK0dV-1" value="Django server&lt;div&gt;&lt;br&gt;&lt;div&gt;&lt;span style=&quot;font-weight: normal;&quot;&gt;manage.py 5999&lt;/span&gt;&lt;/div&gt;&lt;div&gt;&lt;span style=&quot;font-weight: 400;&quot;&gt;./webtools&lt;/span&gt;&lt;br&gt;&lt;/div&gt;&lt;/div&gt;" style="rounded=1;whiteSpace=wrap;html=1;fontStyle=1;labelPosition=center;verticalLabelPosition=middle;align=center;verticalAlign=top;" vertex="1" parent="1">
          <mxGeometry x="635.5" y="246" width="157.5" height="74" as="geometry" />
        </mxCell>
        <mxCell id="nXnLjLIVgFkykUAbK0dV-10" value="React server&lt;div&gt;&lt;br&gt;&lt;div&gt;&lt;span style=&quot;font-weight: normal;&quot;&gt;Serve.js 6005&lt;/span&gt;&lt;/div&gt;&lt;div&gt;&lt;span style=&quot;font-weight: 400;&quot;&gt;./webtools-frontend-test&lt;/span&gt;&lt;br&gt;&lt;/div&gt;&lt;/div&gt;" style="rounded=1;whiteSpace=wrap;html=1;fontStyle=1;labelPosition=center;verticalLabelPosition=middle;align=center;verticalAlign=top;" vertex="1" parent="1">
          <mxGeometry x="635" y="156" width="158" height="74" as="geometry" />
        </mxCell>
        <mxCell id="nXnLjLIVgFkykUAbK0dV-17" value="&lt;b&gt;Byze&lt;/b&gt;" style="rounded=0;whiteSpace=wrap;html=1;verticalAlign=top;dashed=1;" vertex="1" parent="1">
          <mxGeometry x="623" y="360" width="180" height="200" as="geometry" />
        </mxCell>
        <mxCell id="nXnLjLIVgFkykUAbK0dV-18" value="Django server&lt;div&gt;&lt;br&gt;&lt;div&gt;&lt;span style=&quot;font-weight: normal;&quot;&gt;manage.py 6000&lt;/span&gt;&lt;/div&gt;&lt;div&gt;&lt;span style=&quot;font-weight: 400;&quot;&gt;./webtools&lt;/span&gt;&lt;br&gt;&lt;/div&gt;&lt;/div&gt;" style="rounded=1;whiteSpace=wrap;html=1;fontStyle=1;labelPosition=center;verticalLabelPosition=middle;align=center;verticalAlign=top;" vertex="1" parent="1">
          <mxGeometry x="635.5" y="476" width="157.5" height="74" as="geometry" />
        </mxCell>
        <mxCell id="nXnLjLIVgFkykUAbK0dV-19" value="React server&lt;div&gt;&lt;br&gt;&lt;div&gt;&lt;span style=&quot;font-weight: normal;&quot;&gt;Serve.js 6004&lt;/span&gt;&lt;/div&gt;&lt;div&gt;&lt;span style=&quot;font-weight: 400;&quot;&gt;./webtools-frontend&lt;/span&gt;&lt;br&gt;&lt;/div&gt;&lt;/div&gt;" style="rounded=1;whiteSpace=wrap;html=1;fontStyle=1;labelPosition=center;verticalLabelPosition=middle;align=center;verticalAlign=top;" vertex="1" parent="1">
          <mxGeometry x="635" y="386" width="158" height="74" as="geometry" />
        </mxCell>
        <mxCell id="nXnLjLIVgFkykUAbK0dV-20" value="&lt;font style=&quot;font-size: 16px;&quot;&gt;&lt;b&gt;Nginx&lt;/b&gt;&lt;/font&gt;&lt;div&gt;10.183.69.255&lt;br&gt;&lt;span style=&quot;text-wrap: nowrap; background-color: rgb(255, 255, 255);&quot;&gt;clutch-hz.dynamic.nsn-net.net&lt;/span&gt;&lt;br&gt;&lt;/div&gt;" style="rounded=1;whiteSpace=wrap;html=1;verticalAlign=top;" vertex="1" parent="1">
          <mxGeometry x="289" y="182" width="265" height="310" as="geometry" />
        </mxCell>
        <mxCell id="nXnLjLIVgFkykUAbK0dV-28" style="edgeStyle=orthogonalEdgeStyle;rounded=0;orthogonalLoop=1;jettySize=auto;html=1;entryX=0;entryY=0.5;entryDx=0;entryDy=0;curved=1;" edge="1" parent="1" source="nXnLjLIVgFkykUAbK0dV-21" target="nXnLjLIVgFkykUAbK0dV-18">
          <mxGeometry relative="1" as="geometry" />
        </mxCell>
        <mxCell id="nXnLjLIVgFkykUAbK0dV-21" value="location: ~/api/byze&lt;div&gt;proxy_pass http://10.182.106.58:6000&lt;br&gt;&lt;/div&gt;" style="rounded=0;whiteSpace=wrap;html=1;align=left;" vertex="1" parent="1">
          <mxGeometry x="330" y="419" width="210" height="40" as="geometry" />
        </mxCell>
        <mxCell id="nXnLjLIVgFkykUAbK0dV-26" style="edgeStyle=orthogonalEdgeStyle;rounded=0;orthogonalLoop=1;jettySize=auto;html=1;curved=1;" edge="1" parent="1" source="nXnLjLIVgFkykUAbK0dV-22" target="nXnLjLIVgFkykUAbK0dV-1">
          <mxGeometry relative="1" as="geometry" />
        </mxCell>
        <mxCell id="nXnLjLIVgFkykUAbK0dV-22" value="location: ~/api-qa/byze&lt;div&gt;proxy_pass http://10.182.106.58:5999&lt;br&gt;&lt;/div&gt;" style="rounded=0;whiteSpace=wrap;html=1;align=left;" vertex="1" parent="1">
          <mxGeometry x="328" y="296" width="210" height="40" as="geometry" />
        </mxCell>
        <mxCell id="nXnLjLIVgFkykUAbK0dV-29" style="edgeStyle=orthogonalEdgeStyle;rounded=0;orthogonalLoop=1;jettySize=auto;html=1;entryX=0;entryY=0.5;entryDx=0;entryDy=0;curved=1;" edge="1" parent="1" source="nXnLjLIVgFkykUAbK0dV-23" target="nXnLjLIVgFkykUAbK0dV-10">
          <mxGeometry relative="1" as="geometry" />
        </mxCell>
        <mxCell id="nXnLjLIVgFkykUAbK0dV-23" value="location: ~/byze-qa/&lt;div&gt;proxy_pass http://10.182.106.58:6005&lt;br&gt;&lt;/div&gt;" style="rounded=0;whiteSpace=wrap;html=1;align=left;" vertex="1" parent="1">
          <mxGeometry x="328" y="242" width="210" height="40" as="geometry" />
        </mxCell>
        <mxCell id="nXnLjLIVgFkykUAbK0dV-27" style="edgeStyle=orthogonalEdgeStyle;rounded=0;orthogonalLoop=1;jettySize=auto;html=1;entryX=0;entryY=0.5;entryDx=0;entryDy=0;curved=1;" edge="1" parent="1" source="nXnLjLIVgFkykUAbK0dV-24" target="nXnLjLIVgFkykUAbK0dV-19">
          <mxGeometry relative="1" as="geometry" />
        </mxCell>
        <mxCell id="nXnLjLIVgFkykUAbK0dV-24" value="location: ~/byze/&lt;div&gt;proxy_pass http://10.182.106.58:6004&lt;br&gt;&lt;/div&gt;" style="rounded=0;whiteSpace=wrap;html=1;align=left;" vertex="1" parent="1">
          <mxGeometry x="330" y="359" width="210" height="40" as="geometry" />
        </mxCell>
        <mxCell id="nXnLjLIVgFkykUAbK0dV-31" value="port:443" style="rounded=0;whiteSpace=wrap;html=1;" vertex="1" parent="1">
          <mxGeometry x="266" y="330" width="50" height="40" as="geometry" />
        </mxCell>
        <mxCell id="nXnLjLIVgFkykUAbK0dV-41" style="edgeStyle=orthogonalEdgeStyle;rounded=0;orthogonalLoop=1;jettySize=auto;html=1;entryX=0;entryY=0.5;entryDx=0;entryDy=0;" edge="1" parent="1" source="nXnLjLIVgFkykUAbK0dV-40" target="nXnLjLIVgFkykUAbK0dV-31">
          <mxGeometry relative="1" as="geometry" />
        </mxCell>
        <mxCell id="nXnLjLIVgFkykUAbK0dV-40" value="https://clutch-hz.dynamic.nsn-net.net/byze" style="image;sketch=0;aspect=fixed;html=1;points=[];align=center;fontSize=12;image=img/lib/mscae/Virtual_Machine_2.svg;" vertex="1" parent="1">
          <mxGeometry x="80" y="313" width="80.43" height="74" as="geometry" />
        </mxCell>
      </root>
    </mxGraphModel>
  </diagram>
</mxfile>
